<svg width="99" height="126" viewBox="0 0 99 126" fill="none" xmlns="http://www.w3.org/2000/svg">
<path fill-rule="evenodd" clip-rule="evenodd" d="M45.3137 0.366793C41.5689 0.997285 37.5699 2.60649 34.3965 4.75981C32.2607 6.20906 28.8503 9.58916 27.3843 11.7097C22.3369 19.0111 21.0964 28.3046 24.0616 36.6011C27.0661 45.007 33.9996 51.3781 42.8166 53.8341C45.0396 54.4535 45.5731 54.5047 49.7769 54.5047C53.9971 54.5047 54.5083 54.455 56.7763 53.8238C65.5552 51.3798 72.4913 44.9971 75.4922 36.6011C78.4525 28.3181 77.2158 19.0096 72.1891 11.738C70.714 9.60417 67.2355 6.14753 65.1577 4.75071C59.333 0.834863 52.0668 -0.770161 45.3137 0.366793ZM42.7632 58.9696C40.4713 59.2004 36.7263 59.8486 34.995 60.314L33.1333 60.8146L32.3318 62.6782C29.0851 70.2289 26.3847 79.8585 24.5717 90.3517L24.4167 91.2485L26.0247 92.0008C28.2747 93.0538 30.1384 94.8939 31.2662 97.1756C32.1553 98.9746 32.1812 99.1043 32.1812 101.747C32.1812 104.296 32.132 104.571 31.3934 106.13C30.2991 108.44 28.4757 110.293 26.1831 111.427C24.3827 112.317 24.2565 112.342 21.5991 112.342C18.9418 112.342 18.8156 112.317 17.0152 111.427C14.7225 110.293 12.8992 108.44 11.8049 106.13C11.0671 104.572 11.0171 104.295 11.0171 101.76C11.0171 99.2244 11.0671 98.947 11.8049 97.3893C12.8668 95.1476 14.7171 93.2376 16.8707 92.1605C17.8157 91.6875 18.7142 91.3007 18.867 91.3007C19.0346 91.3007 19.417 89.6836 19.831 87.2263C20.7376 81.8418 22.8166 73.622 24.6379 68.221C25.4466 65.8231 26.0692 63.8216 26.0215 63.7733C25.879 63.6284 23.2371 65.1891 20.6148 66.9679C9.0683 74.7991 1.889 87.2795 0.812835 101.39C0.474702 105.821 0.480855 122.881 0.820711 124.105C0.995191 124.734 1.338 125.198 1.86513 125.519C2.63516 125.989 3.53365 125.998 49.7769 125.998C96.0201 125.998 96.9186 125.989 97.6886 125.519C98.2158 125.198 98.5586 124.734 98.7331 124.105C99.0741 122.877 99.0759 104.961 98.7353 101.021C97.5159 86.915 90.2214 74.4703 78.592 66.6551C76.1692 65.0269 71.2466 62.3662 71.0399 62.5729C70.9872 62.6256 71.173 63.7121 71.4528 64.9876C72.2898 68.8042 72.9072 73.5484 72.9085 76.1706L72.9097 78.6359L75.3224 81.0924C78.4638 84.2904 80.2354 86.5235 82.1183 89.6585C85.8087 95.8029 86.4773 101.996 83.9133 106.28C82.2472 109.062 78.2179 111.836 75.8271 111.845C74.4958 111.85 73.8074 111.356 73.3915 110.096C73.1634 109.405 73.1934 109.106 73.5668 108.341C73.9285 107.601 74.3705 107.245 75.8124 106.532C77.8678 105.516 78.8979 104.628 79.5978 103.266C81.1642 100.22 79.7979 95.1505 75.9745 89.8224C74.4502 87.6983 69.7782 82.6783 69.331 82.6839C68.9048 82.6896 64.795 85.1111 62.7012 86.5904C60.3621 88.2434 56.8233 91.685 55.7338 93.3666C54.6439 95.0494 53.9221 97.1085 53.9083 98.5757C53.8903 100.494 54.6783 101.984 56.7376 103.926C58.4332 105.525 58.5132 105.65 58.5132 106.715C58.5132 107.663 58.3931 107.937 57.7095 108.547C56.2125 109.885 54.8663 109.491 52.3648 106.982C49.4028 104.012 48.165 100.556 48.7642 96.9286C49.3519 93.3688 50.8636 90.5638 53.9605 87.2864C57.2116 83.8457 61.5153 80.7169 66.0806 78.4755L67.7417 77.6599V76.2446C67.7417 73.5871 66.1365 64.1346 65.2139 61.3579C64.8651 60.3088 64.8157 60.2891 60.605 59.5186C58.2356 59.085 56.6333 58.99 50.7613 58.9356C46.9037 58.8997 43.3046 58.9152 42.7632 58.9696Z" fill="#0C62BB" fill-opacity="0.1"/>
</svg>
